# xmcd CD database file
#
# Track frame offsets:
#	150
#	26608
#	47828
#
# Disc length: 828 seconds
#
# Revision: 0
# Processed by: cddbd v1.5.1PL2 Copyright (c) Steve Scherf et al.
# Submitted via: CDex 1.51
#
DISCID=1e033a03
DTITLE=森山　直太朗 - 君は五番目の季節
DYEAR=2006
DGENRE=JPop
TTITLE0=君は五番目の季節
TTITLE1=SHARAKUSAY
TTITLE2=神様(Bonus Track)
EXTD=YEAR: 2006
EXTT0=
EXTT1=
EXTT2=
PLAYORDER=
